<mxfile host="app.diagrams.net" agent="Mozilla/5.0 (Windows NT 10.0; Win64; x64) AppleWebKit/537.36 (KHTML, like Gecko) Chrome/130.0.0.0 Safari/537.36" version="24.8.4">
  <diagram name="Page-1" id="pPgLAivcWgVFTInAGKsS">
    <mxGraphModel dx="1518" dy="642" grid="1" gridSize="10" guides="1" tooltips="1" connect="1" arrows="1" fold="1" page="1" pageScale="1" pageWidth="850" pageHeight="1100" math="0" shadow="0">
      <root>
        <mxCell id="0" />
        <mxCell id="1" parent="0" />
        <mxCell id="WkjdpK5C_LHkue519j8W-1" value="" style="rounded=0;whiteSpace=wrap;html=1;fontSize=14;" vertex="1" parent="1">
          <mxGeometry x="210" y="44" width="84" height="46" as="geometry" />
        </mxCell>
        <mxCell id="WkjdpK5C_LHkue519j8W-2" value="&lt;span style=&quot;font-size: 14px;&quot;&gt;n&lt;/span&gt;" style="text;html=1;align=center;verticalAlign=middle;whiteSpace=wrap;rounded=0;" vertex="1" parent="1">
          <mxGeometry x="222" y="14" width="60" height="30" as="geometry" />
        </mxCell>
        <mxCell id="WkjdpK5C_LHkue519j8W-3" value="&lt;span style=&quot;font-size: 14px;&quot;&gt;1&lt;/span&gt;" style="text;html=1;align=center;verticalAlign=middle;whiteSpace=wrap;rounded=0;" vertex="1" parent="1">
          <mxGeometry x="222" y="52" width="60" height="30" as="geometry" />
        </mxCell>
        <mxCell id="WkjdpK5C_LHkue519j8W-4" value="&lt;span style=&quot;font-size: 14px;&quot;&gt;0x47a89ffc1c&lt;/span&gt;" style="text;html=1;align=left;verticalAlign=middle;whiteSpace=wrap;rounded=0;" vertex="1" parent="1">
          <mxGeometry x="304" y="52" width="88" height="30" as="geometry" />
        </mxCell>
        <mxCell id="WkjdpK5C_LHkue519j8W-5" style="edgeStyle=orthogonalEdgeStyle;rounded=0;orthogonalLoop=1;jettySize=auto;html=1;exitX=1;exitY=0;exitDx=0;exitDy=0;entryX=0;entryY=0.5;entryDx=0;entryDy=0;" edge="1" parent="1" source="WkjdpK5C_LHkue519j8W-6" target="WkjdpK5C_LHkue519j8W-1">
          <mxGeometry relative="1" as="geometry">
            <Array as="points">
              <mxPoint x="98" y="114" />
              <mxPoint x="98" y="67" />
            </Array>
          </mxGeometry>
        </mxCell>
        <mxCell id="WkjdpK5C_LHkue519j8W-6" value="" style="rounded=0;whiteSpace=wrap;html=1;fontSize=14;" vertex="1" parent="1">
          <mxGeometry x="14" y="114" width="112" height="46" as="geometry" />
        </mxCell>
        <mxCell id="WkjdpK5C_LHkue519j8W-7" value="&lt;span style=&quot;font-size: 14px;&quot;&gt;*p&lt;/span&gt;" style="text;html=1;align=center;verticalAlign=middle;whiteSpace=wrap;rounded=0;" vertex="1" parent="1">
          <mxGeometry x="40" y="84" width="60" height="30" as="geometry" />
        </mxCell>
        <mxCell id="WkjdpK5C_LHkue519j8W-8" value="&lt;div style=&quot;text-align: left;&quot;&gt;&lt;span style=&quot;font-size: 14px;&quot;&gt;0x47a89ffc1c&lt;/span&gt;&lt;/div&gt;" style="text;html=1;align=center;verticalAlign=middle;whiteSpace=wrap;rounded=0;" vertex="1" parent="1">
          <mxGeometry x="20" y="122" width="100" height="30" as="geometry" />
        </mxCell>
        <mxCell id="WkjdpK5C_LHkue519j8W-9" value="&lt;span style=&quot;font-size: 14px;&quot;&gt;0x47a89ffc10&lt;/span&gt;" style="text;html=1;align=left;verticalAlign=middle;whiteSpace=wrap;rounded=0;" vertex="1" parent="1">
          <mxGeometry x="140" y="122" width="98" height="30" as="geometry" />
        </mxCell>
        <mxCell id="WkjdpK5C_LHkue519j8W-10" value="&lt;span style=&quot;font-size: 14px;&quot;&gt;alokasi untuk q&lt;/span&gt;" style="text;html=1;align=left;verticalAlign=middle;resizable=0;points=[];autosize=1;strokeColor=none;fillColor=none;" vertex="1" parent="1">
          <mxGeometry x="14" y="210" width="126" height="28" as="geometry" />
        </mxCell>
        <mxCell id="WkjdpK5C_LHkue519j8W-11" value="" style="rounded=0;whiteSpace=wrap;html=1;fontSize=14;" vertex="1" parent="1">
          <mxGeometry x="196" y="240" width="112" height="46" as="geometry" />
        </mxCell>
        <mxCell id="WkjdpK5C_LHkue519j8W-12" value="&lt;div style=&quot;text-align: left;&quot;&gt;&lt;span style=&quot;background-color: initial; font-size: 14px;&quot;&gt;(junk value)&lt;/span&gt;&lt;/div&gt;" style="text;html=1;align=center;verticalAlign=middle;whiteSpace=wrap;rounded=0;" vertex="1" parent="1">
          <mxGeometry x="202" y="248" width="100" height="30" as="geometry" />
        </mxCell>
        <mxCell id="WkjdpK5C_LHkue519j8W-13" value="&lt;span style=&quot;font-size: 14px;&quot;&gt;new int&lt;/span&gt;" style="text;html=1;align=center;verticalAlign=middle;whiteSpace=wrap;rounded=0;" vertex="1" parent="1">
          <mxGeometry x="222" y="210" width="60" height="30" as="geometry" />
        </mxCell>
        <mxCell id="WkjdpK5C_LHkue519j8W-14" value="&lt;span style=&quot;font-size: 14px;&quot;&gt;0x1c9ae2507e0&lt;/span&gt;" style="text;html=1;align=left;verticalAlign=middle;whiteSpace=wrap;rounded=0;" vertex="1" parent="1">
          <mxGeometry x="318" y="248" width="88" height="30" as="geometry" />
        </mxCell>
        <mxCell id="WkjdpK5C_LHkue519j8W-15" style="edgeStyle=orthogonalEdgeStyle;rounded=0;orthogonalLoop=1;jettySize=auto;html=1;exitX=1;exitY=0;exitDx=0;exitDy=0;entryX=0;entryY=0.5;entryDx=0;entryDy=0;" edge="1" parent="1" source="WkjdpK5C_LHkue519j8W-16" target="WkjdpK5C_LHkue519j8W-11">
          <mxGeometry relative="1" as="geometry">
            <Array as="points">
              <mxPoint x="98" y="308" />
              <mxPoint x="98" y="263" />
            </Array>
          </mxGeometry>
        </mxCell>
        <mxCell id="WkjdpK5C_LHkue519j8W-16" value="" style="rounded=0;whiteSpace=wrap;html=1;fontSize=14;" vertex="1" parent="1">
          <mxGeometry x="14" y="308" width="112" height="46" as="geometry" />
        </mxCell>
        <mxCell id="WkjdpK5C_LHkue519j8W-17" value="&lt;div style=&quot;text-align: left;&quot;&gt;&lt;span style=&quot;font-size: 14px;&quot;&gt;0x1c9ae2507e0&lt;/span&gt;&lt;/div&gt;" style="text;html=1;align=center;verticalAlign=middle;whiteSpace=wrap;rounded=0;" vertex="1" parent="1">
          <mxGeometry x="20" y="316" width="100" height="30" as="geometry" />
        </mxCell>
        <mxCell id="WkjdpK5C_LHkue519j8W-18" value="&lt;span style=&quot;font-size: 14px;&quot;&gt;*q&lt;/span&gt;" style="text;html=1;align=center;verticalAlign=middle;whiteSpace=wrap;rounded=0;" vertex="1" parent="1">
          <mxGeometry x="40" y="278" width="60" height="30" as="geometry" />
        </mxCell>
        <mxCell id="WkjdpK5C_LHkue519j8W-19" value="&lt;span style=&quot;font-size: 14px;&quot;&gt;0x47a89ffc08&lt;/span&gt;" style="text;html=1;align=left;verticalAlign=middle;whiteSpace=wrap;rounded=0;" vertex="1" parent="1">
          <mxGeometry x="136" y="316" width="88" height="30" as="geometry" />
        </mxCell>
        <mxCell id="WkjdpK5C_LHkue519j8W-20" value="&lt;span style=&quot;font-size: 14px;&quot;&gt;assignment melalui pointer q&lt;/span&gt;" style="text;html=1;align=left;verticalAlign=middle;resizable=0;points=[];autosize=1;strokeColor=none;fillColor=none;" vertex="1" parent="1">
          <mxGeometry x="14" y="406" width="210" height="28" as="geometry" />
        </mxCell>
        <mxCell id="WkjdpK5C_LHkue519j8W-21" value="" style="rounded=0;whiteSpace=wrap;html=1;fontSize=14;" vertex="1" parent="1">
          <mxGeometry x="198" y="436" width="112" height="46" as="geometry" />
        </mxCell>
        <mxCell id="WkjdpK5C_LHkue519j8W-22" value="&lt;div style=&quot;text-align: left;&quot;&gt;&lt;span style=&quot;background-color: initial; font-size: 14px;&quot;&gt;2&lt;/span&gt;&lt;/div&gt;" style="text;html=1;align=center;verticalAlign=middle;whiteSpace=wrap;rounded=0;" vertex="1" parent="1">
          <mxGeometry x="204" y="444" width="100" height="30" as="geometry" />
        </mxCell>
        <mxCell id="WkjdpK5C_LHkue519j8W-23" value="&lt;span style=&quot;font-size: 14px;&quot;&gt;new int&lt;/span&gt;" style="text;html=1;align=center;verticalAlign=middle;whiteSpace=wrap;rounded=0;" vertex="1" parent="1">
          <mxGeometry x="224" y="406" width="60" height="30" as="geometry" />
        </mxCell>
        <mxCell id="WkjdpK5C_LHkue519j8W-24" value="&lt;span style=&quot;font-size: 14px;&quot;&gt;0x1c9ae2507e0&lt;/span&gt;" style="text;html=1;align=left;verticalAlign=middle;whiteSpace=wrap;rounded=0;" vertex="1" parent="1">
          <mxGeometry x="320" y="444" width="88" height="30" as="geometry" />
        </mxCell>
        <mxCell id="WkjdpK5C_LHkue519j8W-25" style="edgeStyle=orthogonalEdgeStyle;rounded=0;orthogonalLoop=1;jettySize=auto;html=1;exitX=1;exitY=0;exitDx=0;exitDy=0;entryX=0;entryY=0.5;entryDx=0;entryDy=0;" edge="1" parent="1" source="WkjdpK5C_LHkue519j8W-26" target="WkjdpK5C_LHkue519j8W-21">
          <mxGeometry relative="1" as="geometry">
            <Array as="points">
              <mxPoint x="100" y="504" />
              <mxPoint x="100" y="459" />
            </Array>
          </mxGeometry>
        </mxCell>
        <mxCell id="WkjdpK5C_LHkue519j8W-26" value="" style="rounded=0;whiteSpace=wrap;html=1;fontSize=14;" vertex="1" parent="1">
          <mxGeometry x="16" y="504" width="112" height="46" as="geometry" />
        </mxCell>
        <mxCell id="WkjdpK5C_LHkue519j8W-27" value="&lt;div style=&quot;text-align: left;&quot;&gt;&lt;span style=&quot;font-size: 14px;&quot;&gt;0x1c9ae2507e0&lt;/span&gt;&lt;/div&gt;" style="text;html=1;align=center;verticalAlign=middle;whiteSpace=wrap;rounded=0;" vertex="1" parent="1">
          <mxGeometry x="22" y="512" width="100" height="30" as="geometry" />
        </mxCell>
        <mxCell id="WkjdpK5C_LHkue519j8W-28" value="&lt;span style=&quot;font-size: 14px;&quot;&gt;*q&lt;/span&gt;" style="text;html=1;align=center;verticalAlign=middle;whiteSpace=wrap;rounded=0;" vertex="1" parent="1">
          <mxGeometry x="42" y="474" width="60" height="30" as="geometry" />
        </mxCell>
        <mxCell id="WkjdpK5C_LHkue519j8W-29" value="&lt;span style=&quot;font-size: 14px;&quot;&gt;0x47a89ffc08&lt;/span&gt;" style="text;html=1;align=left;verticalAlign=middle;whiteSpace=wrap;rounded=0;" vertex="1" parent="1">
          <mxGeometry x="138" y="512" width="88" height="30" as="geometry" />
        </mxCell>
        <mxCell id="WkjdpK5C_LHkue519j8W-30" value="&lt;span style=&quot;font-size: 14px;&quot;&gt;proses alokasi r (tanpa delete q)&lt;/span&gt;" style="text;html=1;align=left;verticalAlign=middle;resizable=0;points=[];autosize=1;strokeColor=none;fillColor=none;" vertex="1" parent="1">
          <mxGeometry x="380" y="610" width="220" height="30" as="geometry" />
        </mxCell>
        <mxCell id="WkjdpK5C_LHkue519j8W-31" value="" style="rounded=0;whiteSpace=wrap;html=1;fontSize=14;" vertex="1" parent="1">
          <mxGeometry x="562" y="660" width="112" height="46" as="geometry" />
        </mxCell>
        <mxCell id="WkjdpK5C_LHkue519j8W-32" value="&lt;div style=&quot;text-align: left;&quot;&gt;&lt;span style=&quot;font-size: 14px;&quot;&gt;2&lt;/span&gt;&lt;/div&gt;" style="text;html=1;align=center;verticalAlign=middle;whiteSpace=wrap;rounded=0;" vertex="1" parent="1">
          <mxGeometry x="568" y="668" width="100" height="30" as="geometry" />
        </mxCell>
        <mxCell id="WkjdpK5C_LHkue519j8W-33" value="&lt;span style=&quot;font-size: 14px;&quot;&gt;new int&lt;/span&gt;" style="text;html=1;align=center;verticalAlign=middle;whiteSpace=wrap;rounded=0;" vertex="1" parent="1">
          <mxGeometry x="588" y="630" width="60" height="30" as="geometry" />
        </mxCell>
        <mxCell id="WkjdpK5C_LHkue519j8W-34" value="&lt;span style=&quot;font-size: 14px;&quot;&gt;0x1c9ae2507e0&lt;/span&gt;" style="text;html=1;align=left;verticalAlign=middle;whiteSpace=wrap;rounded=0;" vertex="1" parent="1">
          <mxGeometry x="684" y="668" width="88" height="30" as="geometry" />
        </mxCell>
        <mxCell id="WkjdpK5C_LHkue519j8W-35" style="edgeStyle=orthogonalEdgeStyle;rounded=0;orthogonalLoop=1;jettySize=auto;html=1;exitX=1;exitY=0;exitDx=0;exitDy=0;entryX=0;entryY=0.5;entryDx=0;entryDy=0;" edge="1" parent="1" source="WkjdpK5C_LHkue519j8W-36" target="WkjdpK5C_LHkue519j8W-31">
          <mxGeometry relative="1" as="geometry">
            <Array as="points">
              <mxPoint x="464" y="728" />
              <mxPoint x="464" y="683" />
            </Array>
          </mxGeometry>
        </mxCell>
        <mxCell id="WkjdpK5C_LHkue519j8W-36" value="" style="rounded=0;whiteSpace=wrap;html=1;fontSize=14;" vertex="1" parent="1">
          <mxGeometry x="380" y="728" width="112" height="46" as="geometry" />
        </mxCell>
        <mxCell id="WkjdpK5C_LHkue519j8W-37" value="&lt;div style=&quot;text-align: left;&quot;&gt;&lt;span style=&quot;font-size: 14px;&quot;&gt;0x1c9ae2507e0&lt;/span&gt;&lt;/div&gt;" style="text;html=1;align=center;verticalAlign=middle;whiteSpace=wrap;rounded=0;" vertex="1" parent="1">
          <mxGeometry x="386" y="736" width="100" height="30" as="geometry" />
        </mxCell>
        <mxCell id="WkjdpK5C_LHkue519j8W-38" value="&lt;span style=&quot;font-size: 14px;&quot;&gt;*q&lt;/span&gt;" style="text;html=1;align=center;verticalAlign=middle;whiteSpace=wrap;rounded=0;" vertex="1" parent="1">
          <mxGeometry x="406" y="698" width="60" height="30" as="geometry" />
        </mxCell>
        <mxCell id="WkjdpK5C_LHkue519j8W-39" value="&lt;span style=&quot;font-size: 14px;&quot;&gt;0x47a89ffc08&lt;/span&gt;" style="text;html=1;align=left;verticalAlign=middle;whiteSpace=wrap;rounded=0;" vertex="1" parent="1">
          <mxGeometry x="502" y="736" width="88" height="30" as="geometry" />
        </mxCell>
        <mxCell id="WkjdpK5C_LHkue519j8W-42" value="" style="rounded=0;whiteSpace=wrap;html=1;fontSize=14;" vertex="1" parent="1">
          <mxGeometry x="562" y="830" width="112" height="46" as="geometry" />
        </mxCell>
        <mxCell id="WkjdpK5C_LHkue519j8W-43" value="&lt;div style=&quot;text-align: left;&quot;&gt;&lt;span style=&quot;font-size: 14px;&quot;&gt;(junk value)&lt;/span&gt;&lt;/div&gt;" style="text;html=1;align=center;verticalAlign=middle;whiteSpace=wrap;rounded=0;" vertex="1" parent="1">
          <mxGeometry x="568" y="838" width="100" height="30" as="geometry" />
        </mxCell>
        <mxCell id="WkjdpK5C_LHkue519j8W-44" value="&lt;span style=&quot;font-size: 14px;&quot;&gt;new int&lt;/span&gt;" style="text;html=1;align=center;verticalAlign=middle;whiteSpace=wrap;rounded=0;" vertex="1" parent="1">
          <mxGeometry x="588" y="800" width="60" height="30" as="geometry" />
        </mxCell>
        <mxCell id="WkjdpK5C_LHkue519j8W-45" value="&lt;span style=&quot;font-size: 14px;&quot;&gt;0x1c9ae25cfe0&lt;/span&gt;" style="text;html=1;align=left;verticalAlign=middle;whiteSpace=wrap;rounded=0;" vertex="1" parent="1">
          <mxGeometry x="684" y="838" width="88" height="30" as="geometry" />
        </mxCell>
        <mxCell id="WkjdpK5C_LHkue519j8W-46" style="edgeStyle=orthogonalEdgeStyle;rounded=0;orthogonalLoop=1;jettySize=auto;html=1;exitX=1;exitY=0;exitDx=0;exitDy=0;entryX=0;entryY=0.5;entryDx=0;entryDy=0;" edge="1" parent="1" source="WkjdpK5C_LHkue519j8W-47" target="WkjdpK5C_LHkue519j8W-42">
          <mxGeometry relative="1" as="geometry">
            <Array as="points">
              <mxPoint x="464" y="898" />
              <mxPoint x="464" y="853" />
            </Array>
          </mxGeometry>
        </mxCell>
        <mxCell id="WkjdpK5C_LHkue519j8W-47" value="" style="rounded=0;whiteSpace=wrap;html=1;fontSize=14;" vertex="1" parent="1">
          <mxGeometry x="380" y="898" width="112" height="46" as="geometry" />
        </mxCell>
        <mxCell id="WkjdpK5C_LHkue519j8W-48" value="&lt;div style=&quot;text-align: left;&quot;&gt;&lt;span style=&quot;font-size: 14px;&quot;&gt;0x1c9ae25cfe0&lt;/span&gt;&lt;/div&gt;" style="text;html=1;align=center;verticalAlign=middle;whiteSpace=wrap;rounded=0;" vertex="1" parent="1">
          <mxGeometry x="386" y="906" width="100" height="30" as="geometry" />
        </mxCell>
        <mxCell id="WkjdpK5C_LHkue519j8W-49" value="&lt;span style=&quot;font-size: 14px;&quot;&gt;*r&lt;/span&gt;" style="text;html=1;align=center;verticalAlign=middle;whiteSpace=wrap;rounded=0;" vertex="1" parent="1">
          <mxGeometry x="406" y="868" width="60" height="30" as="geometry" />
        </mxCell>
        <mxCell id="WkjdpK5C_LHkue519j8W-50" value="&lt;span style=&quot;font-size: 14px;&quot;&gt;0x47a89ffc00&lt;/span&gt;" style="text;html=1;align=left;verticalAlign=middle;whiteSpace=wrap;rounded=0;" vertex="1" parent="1">
          <mxGeometry x="502" y="906" width="88" height="30" as="geometry" />
        </mxCell>
        <mxCell id="WkjdpK5C_LHkue519j8W-70" value="&lt;span style=&quot;font-size: 14px;&quot;&gt;assignment melalui pointer r&lt;/span&gt;" style="text;html=1;align=left;verticalAlign=middle;resizable=0;points=[];autosize=1;strokeColor=none;fillColor=none;" vertex="1" parent="1">
          <mxGeometry x="380" y="1000" width="200" height="30" as="geometry" />
        </mxCell>
        <mxCell id="WkjdpK5C_LHkue519j8W-71" value="" style="rounded=0;whiteSpace=wrap;html=1;fontSize=14;" vertex="1" parent="1">
          <mxGeometry x="562" y="1050" width="112" height="46" as="geometry" />
        </mxCell>
        <mxCell id="WkjdpK5C_LHkue519j8W-72" value="&lt;div style=&quot;text-align: left;&quot;&gt;&lt;span style=&quot;font-size: 14px;&quot;&gt;2&lt;/span&gt;&lt;/div&gt;" style="text;html=1;align=center;verticalAlign=middle;whiteSpace=wrap;rounded=0;" vertex="1" parent="1">
          <mxGeometry x="568" y="1058" width="100" height="30" as="geometry" />
        </mxCell>
        <mxCell id="WkjdpK5C_LHkue519j8W-73" value="&lt;span style=&quot;font-size: 14px;&quot;&gt;new int&lt;/span&gt;" style="text;html=1;align=center;verticalAlign=middle;whiteSpace=wrap;rounded=0;" vertex="1" parent="1">
          <mxGeometry x="588" y="1020" width="60" height="30" as="geometry" />
        </mxCell>
        <mxCell id="WkjdpK5C_LHkue519j8W-74" value="&lt;span style=&quot;font-size: 14px;&quot;&gt;0x1c9ae2507e0&lt;/span&gt;" style="text;html=1;align=left;verticalAlign=middle;whiteSpace=wrap;rounded=0;" vertex="1" parent="1">
          <mxGeometry x="684" y="1058" width="88" height="30" as="geometry" />
        </mxCell>
        <mxCell id="WkjdpK5C_LHkue519j8W-75" style="edgeStyle=orthogonalEdgeStyle;rounded=0;orthogonalLoop=1;jettySize=auto;html=1;exitX=1;exitY=0;exitDx=0;exitDy=0;entryX=0;entryY=0.5;entryDx=0;entryDy=0;" edge="1" parent="1" source="WkjdpK5C_LHkue519j8W-76" target="WkjdpK5C_LHkue519j8W-71">
          <mxGeometry relative="1" as="geometry">
            <Array as="points">
              <mxPoint x="464" y="1118" />
              <mxPoint x="464" y="1073" />
            </Array>
          </mxGeometry>
        </mxCell>
        <mxCell id="WkjdpK5C_LHkue519j8W-76" value="" style="rounded=0;whiteSpace=wrap;html=1;fontSize=14;" vertex="1" parent="1">
          <mxGeometry x="380" y="1118" width="112" height="46" as="geometry" />
        </mxCell>
        <mxCell id="WkjdpK5C_LHkue519j8W-77" value="&lt;div style=&quot;text-align: left;&quot;&gt;&lt;span style=&quot;font-size: 14px;&quot;&gt;0x1c9ae2507e0&lt;/span&gt;&lt;/div&gt;" style="text;html=1;align=center;verticalAlign=middle;whiteSpace=wrap;rounded=0;" vertex="1" parent="1">
          <mxGeometry x="386" y="1126" width="100" height="30" as="geometry" />
        </mxCell>
        <mxCell id="WkjdpK5C_LHkue519j8W-78" value="&lt;span style=&quot;font-size: 14px;&quot;&gt;*q&lt;/span&gt;" style="text;html=1;align=center;verticalAlign=middle;whiteSpace=wrap;rounded=0;" vertex="1" parent="1">
          <mxGeometry x="406" y="1088" width="60" height="30" as="geometry" />
        </mxCell>
        <mxCell id="WkjdpK5C_LHkue519j8W-79" value="&lt;span style=&quot;font-size: 14px;&quot;&gt;0x47a89ffc08&lt;/span&gt;" style="text;html=1;align=left;verticalAlign=middle;whiteSpace=wrap;rounded=0;" vertex="1" parent="1">
          <mxGeometry x="502" y="1126" width="88" height="30" as="geometry" />
        </mxCell>
        <mxCell id="WkjdpK5C_LHkue519j8W-80" value="" style="rounded=0;whiteSpace=wrap;html=1;fontSize=14;" vertex="1" parent="1">
          <mxGeometry x="562" y="1220" width="112" height="46" as="geometry" />
        </mxCell>
        <mxCell id="WkjdpK5C_LHkue519j8W-81" value="&lt;div style=&quot;text-align: left;&quot;&gt;&lt;span style=&quot;font-size: 14px;&quot;&gt;3&lt;/span&gt;&lt;/div&gt;" style="text;html=1;align=center;verticalAlign=middle;whiteSpace=wrap;rounded=0;" vertex="1" parent="1">
          <mxGeometry x="568" y="1228" width="100" height="30" as="geometry" />
        </mxCell>
        <mxCell id="WkjdpK5C_LHkue519j8W-82" value="&lt;span style=&quot;font-size: 14px;&quot;&gt;new int&lt;/span&gt;" style="text;html=1;align=center;verticalAlign=middle;whiteSpace=wrap;rounded=0;" vertex="1" parent="1">
          <mxGeometry x="588" y="1190" width="60" height="30" as="geometry" />
        </mxCell>
        <mxCell id="WkjdpK5C_LHkue519j8W-83" value="&lt;span style=&quot;font-size: 14px;&quot;&gt;0x1c9ae25cfe0&lt;/span&gt;" style="text;html=1;align=left;verticalAlign=middle;whiteSpace=wrap;rounded=0;" vertex="1" parent="1">
          <mxGeometry x="684" y="1228" width="88" height="30" as="geometry" />
        </mxCell>
        <mxCell id="WkjdpK5C_LHkue519j8W-84" style="edgeStyle=orthogonalEdgeStyle;rounded=0;orthogonalLoop=1;jettySize=auto;html=1;exitX=1;exitY=0;exitDx=0;exitDy=0;entryX=0;entryY=0.5;entryDx=0;entryDy=0;" edge="1" parent="1" source="WkjdpK5C_LHkue519j8W-85" target="WkjdpK5C_LHkue519j8W-80">
          <mxGeometry relative="1" as="geometry">
            <Array as="points">
              <mxPoint x="464" y="1288" />
              <mxPoint x="464" y="1243" />
            </Array>
          </mxGeometry>
        </mxCell>
        <mxCell id="WkjdpK5C_LHkue519j8W-85" value="" style="rounded=0;whiteSpace=wrap;html=1;fontSize=14;" vertex="1" parent="1">
          <mxGeometry x="380" y="1288" width="112" height="46" as="geometry" />
        </mxCell>
        <mxCell id="WkjdpK5C_LHkue519j8W-86" value="&lt;div style=&quot;text-align: left;&quot;&gt;&lt;span style=&quot;font-size: 14px;&quot;&gt;0x1c9ae25cfe0&lt;/span&gt;&lt;/div&gt;" style="text;html=1;align=center;verticalAlign=middle;whiteSpace=wrap;rounded=0;" vertex="1" parent="1">
          <mxGeometry x="386" y="1296" width="100" height="30" as="geometry" />
        </mxCell>
        <mxCell id="WkjdpK5C_LHkue519j8W-87" value="&lt;span style=&quot;font-size: 14px;&quot;&gt;*r&lt;/span&gt;" style="text;html=1;align=center;verticalAlign=middle;whiteSpace=wrap;rounded=0;" vertex="1" parent="1">
          <mxGeometry x="406" y="1258" width="60" height="30" as="geometry" />
        </mxCell>
        <mxCell id="WkjdpK5C_LHkue519j8W-88" value="&lt;span style=&quot;font-size: 14px;&quot;&gt;0x47a89ffc00&lt;/span&gt;" style="text;html=1;align=left;verticalAlign=middle;whiteSpace=wrap;rounded=0;" vertex="1" parent="1">
          <mxGeometry x="502" y="1296" width="88" height="30" as="geometry" />
        </mxCell>
        <mxCell id="WkjdpK5C_LHkue519j8W-127" value="&lt;span style=&quot;font-size: 14px;&quot;&gt;assignment q ke s&lt;/span&gt;" style="text;html=1;align=left;verticalAlign=middle;resizable=0;points=[];autosize=1;strokeColor=none;fillColor=none;" vertex="1" parent="1">
          <mxGeometry x="42" y="1440" width="140" height="30" as="geometry" />
        </mxCell>
        <mxCell id="WkjdpK5C_LHkue519j8W-128" value="" style="rounded=0;whiteSpace=wrap;html=1;fontSize=14;" vertex="1" parent="1">
          <mxGeometry x="224" y="1490" width="112" height="46" as="geometry" />
        </mxCell>
        <mxCell id="WkjdpK5C_LHkue519j8W-129" value="&lt;div style=&quot;text-align: left;&quot;&gt;&lt;span style=&quot;font-size: 14px;&quot;&gt;2&lt;/span&gt;&lt;/div&gt;" style="text;html=1;align=center;verticalAlign=middle;whiteSpace=wrap;rounded=0;" vertex="1" parent="1">
          <mxGeometry x="230" y="1498" width="100" height="30" as="geometry" />
        </mxCell>
        <mxCell id="WkjdpK5C_LHkue519j8W-130" value="&lt;span style=&quot;font-size: 14px;&quot;&gt;new int&lt;/span&gt;" style="text;html=1;align=center;verticalAlign=middle;whiteSpace=wrap;rounded=0;" vertex="1" parent="1">
          <mxGeometry x="250" y="1460" width="60" height="30" as="geometry" />
        </mxCell>
        <mxCell id="WkjdpK5C_LHkue519j8W-131" value="&lt;span style=&quot;font-size: 14px;&quot;&gt;0x1c9ae2507e0&lt;/span&gt;" style="text;html=1;align=left;verticalAlign=middle;whiteSpace=wrap;rounded=0;" vertex="1" parent="1">
          <mxGeometry x="346" y="1498" width="88" height="30" as="geometry" />
        </mxCell>
        <mxCell id="WkjdpK5C_LHkue519j8W-132" style="edgeStyle=orthogonalEdgeStyle;rounded=0;orthogonalLoop=1;jettySize=auto;html=1;exitX=1;exitY=0;exitDx=0;exitDy=0;entryX=0;entryY=0.5;entryDx=0;entryDy=0;" edge="1" parent="1" source="WkjdpK5C_LHkue519j8W-133" target="WkjdpK5C_LHkue519j8W-128">
          <mxGeometry relative="1" as="geometry">
            <Array as="points">
              <mxPoint x="126" y="1558" />
              <mxPoint x="126" y="1513" />
            </Array>
          </mxGeometry>
        </mxCell>
        <mxCell id="WkjdpK5C_LHkue519j8W-133" value="" style="rounded=0;whiteSpace=wrap;html=1;fontSize=14;" vertex="1" parent="1">
          <mxGeometry x="42" y="1558" width="112" height="46" as="geometry" />
        </mxCell>
        <mxCell id="WkjdpK5C_LHkue519j8W-134" value="&lt;div style=&quot;text-align: left;&quot;&gt;&lt;span style=&quot;font-size: 14px;&quot;&gt;0x1c9ae2507e0&lt;/span&gt;&lt;/div&gt;" style="text;html=1;align=center;verticalAlign=middle;whiteSpace=wrap;rounded=0;" vertex="1" parent="1">
          <mxGeometry x="48" y="1566" width="100" height="30" as="geometry" />
        </mxCell>
        <mxCell id="WkjdpK5C_LHkue519j8W-135" value="&lt;span style=&quot;font-size: 14px;&quot;&gt;*q&lt;/span&gt;" style="text;html=1;align=center;verticalAlign=middle;whiteSpace=wrap;rounded=0;" vertex="1" parent="1">
          <mxGeometry x="68" y="1528" width="60" height="30" as="geometry" />
        </mxCell>
        <mxCell id="WkjdpK5C_LHkue519j8W-136" value="&lt;span style=&quot;font-size: 14px;&quot;&gt;0x47a89ffc08&lt;/span&gt;" style="text;html=1;align=left;verticalAlign=middle;whiteSpace=wrap;rounded=0;" vertex="1" parent="1">
          <mxGeometry x="164" y="1566" width="88" height="30" as="geometry" />
        </mxCell>
        <mxCell id="WkjdpK5C_LHkue519j8W-137" value="" style="rounded=0;whiteSpace=wrap;html=1;fontSize=14;" vertex="1" parent="1">
          <mxGeometry x="222" y="1750" width="112" height="46" as="geometry" />
        </mxCell>
        <mxCell id="WkjdpK5C_LHkue519j8W-138" value="&lt;div style=&quot;text-align: left;&quot;&gt;&lt;span style=&quot;font-size: 14px;&quot;&gt;3&lt;/span&gt;&lt;/div&gt;" style="text;html=1;align=center;verticalAlign=middle;whiteSpace=wrap;rounded=0;" vertex="1" parent="1">
          <mxGeometry x="228" y="1758" width="100" height="30" as="geometry" />
        </mxCell>
        <mxCell id="WkjdpK5C_LHkue519j8W-139" value="&lt;span style=&quot;font-size: 14px;&quot;&gt;new int&lt;/span&gt;" style="text;html=1;align=center;verticalAlign=middle;whiteSpace=wrap;rounded=0;" vertex="1" parent="1">
          <mxGeometry x="248" y="1720" width="60" height="30" as="geometry" />
        </mxCell>
        <mxCell id="WkjdpK5C_LHkue519j8W-140" value="&lt;span style=&quot;font-size: 14px;&quot;&gt;0x1c9ae25cfe0&lt;/span&gt;" style="text;html=1;align=left;verticalAlign=middle;whiteSpace=wrap;rounded=0;" vertex="1" parent="1">
          <mxGeometry x="344" y="1758" width="88" height="30" as="geometry" />
        </mxCell>
        <mxCell id="WkjdpK5C_LHkue519j8W-141" style="edgeStyle=orthogonalEdgeStyle;rounded=0;orthogonalLoop=1;jettySize=auto;html=1;exitX=1;exitY=0;exitDx=0;exitDy=0;entryX=0;entryY=0.5;entryDx=0;entryDy=0;" edge="1" parent="1" source="WkjdpK5C_LHkue519j8W-142" target="WkjdpK5C_LHkue519j8W-137">
          <mxGeometry relative="1" as="geometry">
            <Array as="points">
              <mxPoint x="124" y="1818" />
              <mxPoint x="124" y="1773" />
            </Array>
          </mxGeometry>
        </mxCell>
        <mxCell id="WkjdpK5C_LHkue519j8W-142" value="" style="rounded=0;whiteSpace=wrap;html=1;fontSize=14;" vertex="1" parent="1">
          <mxGeometry x="40" y="1818" width="112" height="46" as="geometry" />
        </mxCell>
        <mxCell id="WkjdpK5C_LHkue519j8W-143" value="&lt;div style=&quot;text-align: left;&quot;&gt;&lt;span style=&quot;font-size: 14px;&quot;&gt;0x1c9ae25cfe0&lt;/span&gt;&lt;/div&gt;" style="text;html=1;align=center;verticalAlign=middle;whiteSpace=wrap;rounded=0;" vertex="1" parent="1">
          <mxGeometry x="46" y="1826" width="100" height="30" as="geometry" />
        </mxCell>
        <mxCell id="WkjdpK5C_LHkue519j8W-144" value="&lt;span style=&quot;font-size: 14px;&quot;&gt;*r&lt;/span&gt;" style="text;html=1;align=center;verticalAlign=middle;whiteSpace=wrap;rounded=0;" vertex="1" parent="1">
          <mxGeometry x="66" y="1788" width="60" height="30" as="geometry" />
        </mxCell>
        <mxCell id="WkjdpK5C_LHkue519j8W-145" value="&lt;span style=&quot;font-size: 14px;&quot;&gt;0x47a89ffc00&lt;/span&gt;" style="text;html=1;align=left;verticalAlign=middle;whiteSpace=wrap;rounded=0;" vertex="1" parent="1">
          <mxGeometry x="162" y="1826" width="88" height="30" as="geometry" />
        </mxCell>
        <mxCell id="WkjdpK5C_LHkue519j8W-151" style="edgeStyle=orthogonalEdgeStyle;rounded=0;orthogonalLoop=1;jettySize=auto;html=1;exitX=0.25;exitY=0;exitDx=0;exitDy=0;entryX=0.5;entryY=1;entryDx=0;entryDy=0;" edge="1" parent="1" source="WkjdpK5C_LHkue519j8W-146" target="WkjdpK5C_LHkue519j8W-128">
          <mxGeometry relative="1" as="geometry" />
        </mxCell>
        <mxCell id="WkjdpK5C_LHkue519j8W-146" value="" style="rounded=0;whiteSpace=wrap;html=1;fontSize=14;" vertex="1" parent="1">
          <mxGeometry x="252" y="1604" width="112" height="46" as="geometry" />
        </mxCell>
        <mxCell id="WkjdpK5C_LHkue519j8W-147" value="&lt;div style=&quot;text-align: left;&quot;&gt;&lt;span style=&quot;font-size: 14px;&quot;&gt;0x1c9ae2507e0&lt;/span&gt;&lt;/div&gt;" style="text;html=1;align=center;verticalAlign=middle;whiteSpace=wrap;rounded=0;" vertex="1" parent="1">
          <mxGeometry x="258" y="1612" width="100" height="30" as="geometry" />
        </mxCell>
        <mxCell id="WkjdpK5C_LHkue519j8W-148" value="&lt;span style=&quot;font-size: 14px;&quot;&gt;*s&lt;/span&gt;" style="text;html=1;align=center;verticalAlign=middle;whiteSpace=wrap;rounded=0;" vertex="1" parent="1">
          <mxGeometry x="294" y="1574" width="60" height="30" as="geometry" />
        </mxCell>
        <mxCell id="WkjdpK5C_LHkue519j8W-149" value="&lt;span style=&quot;font-size: 14px;&quot;&gt;0x47a89ffbf8&lt;/span&gt;" style="text;html=1;align=left;verticalAlign=middle;whiteSpace=wrap;rounded=0;" vertex="1" parent="1">
          <mxGeometry x="370" y="1612" width="88" height="30" as="geometry" />
        </mxCell>
        <mxCell id="WkjdpK5C_LHkue519j8W-176" value="&lt;span style=&quot;font-size: 14px;&quot;&gt;assignment melalui pointer s&lt;/span&gt;" style="text;html=1;align=left;verticalAlign=middle;resizable=0;points=[];autosize=1;strokeColor=none;fillColor=none;" vertex="1" parent="1">
          <mxGeometry x="42" y="1960" width="200" height="30" as="geometry" />
        </mxCell>
        <mxCell id="WkjdpK5C_LHkue519j8W-177" value="" style="rounded=0;whiteSpace=wrap;html=1;fontSize=14;" vertex="1" parent="1">
          <mxGeometry x="224" y="2010" width="112" height="46" as="geometry" />
        </mxCell>
        <mxCell id="WkjdpK5C_LHkue519j8W-178" value="&lt;div style=&quot;text-align: left;&quot;&gt;&lt;span style=&quot;font-size: 14px;&quot;&gt;4&lt;/span&gt;&lt;/div&gt;" style="text;html=1;align=center;verticalAlign=middle;whiteSpace=wrap;rounded=0;" vertex="1" parent="1">
          <mxGeometry x="230" y="2018" width="100" height="30" as="geometry" />
        </mxCell>
        <mxCell id="WkjdpK5C_LHkue519j8W-179" value="&lt;span style=&quot;font-size: 14px;&quot;&gt;new int&lt;/span&gt;" style="text;html=1;align=center;verticalAlign=middle;whiteSpace=wrap;rounded=0;" vertex="1" parent="1">
          <mxGeometry x="250" y="1980" width="60" height="30" as="geometry" />
        </mxCell>
        <mxCell id="WkjdpK5C_LHkue519j8W-180" value="&lt;span style=&quot;font-size: 14px;&quot;&gt;0x1c9ae2507e0&lt;/span&gt;" style="text;html=1;align=left;verticalAlign=middle;whiteSpace=wrap;rounded=0;" vertex="1" parent="1">
          <mxGeometry x="346" y="2018" width="88" height="30" as="geometry" />
        </mxCell>
        <mxCell id="WkjdpK5C_LHkue519j8W-181" style="edgeStyle=orthogonalEdgeStyle;rounded=0;orthogonalLoop=1;jettySize=auto;html=1;exitX=1;exitY=0;exitDx=0;exitDy=0;entryX=0;entryY=0.5;entryDx=0;entryDy=0;" edge="1" parent="1" source="WkjdpK5C_LHkue519j8W-182" target="WkjdpK5C_LHkue519j8W-177">
          <mxGeometry relative="1" as="geometry">
            <Array as="points">
              <mxPoint x="126" y="2078" />
              <mxPoint x="126" y="2033" />
            </Array>
          </mxGeometry>
        </mxCell>
        <mxCell id="WkjdpK5C_LHkue519j8W-182" value="" style="rounded=0;whiteSpace=wrap;html=1;fontSize=14;" vertex="1" parent="1">
          <mxGeometry x="42" y="2078" width="112" height="46" as="geometry" />
        </mxCell>
        <mxCell id="WkjdpK5C_LHkue519j8W-183" value="&lt;div style=&quot;text-align: left;&quot;&gt;&lt;span style=&quot;font-size: 14px;&quot;&gt;0x1c9ae2507e0&lt;/span&gt;&lt;/div&gt;" style="text;html=1;align=center;verticalAlign=middle;whiteSpace=wrap;rounded=0;" vertex="1" parent="1">
          <mxGeometry x="48" y="2086" width="100" height="30" as="geometry" />
        </mxCell>
        <mxCell id="WkjdpK5C_LHkue519j8W-184" value="&lt;span style=&quot;font-size: 14px;&quot;&gt;*q&lt;/span&gt;" style="text;html=1;align=center;verticalAlign=middle;whiteSpace=wrap;rounded=0;" vertex="1" parent="1">
          <mxGeometry x="68" y="2048" width="60" height="30" as="geometry" />
        </mxCell>
        <mxCell id="WkjdpK5C_LHkue519j8W-185" value="&lt;span style=&quot;font-size: 14px;&quot;&gt;0x47a89ffc08&lt;/span&gt;" style="text;html=1;align=left;verticalAlign=middle;whiteSpace=wrap;rounded=0;" vertex="1" parent="1">
          <mxGeometry x="164" y="2086" width="88" height="30" as="geometry" />
        </mxCell>
        <mxCell id="WkjdpK5C_LHkue519j8W-186" value="" style="rounded=0;whiteSpace=wrap;html=1;fontSize=14;" vertex="1" parent="1">
          <mxGeometry x="222" y="2270" width="112" height="46" as="geometry" />
        </mxCell>
        <mxCell id="WkjdpK5C_LHkue519j8W-187" value="&lt;div style=&quot;text-align: left;&quot;&gt;&lt;span style=&quot;font-size: 14px;&quot;&gt;3&lt;/span&gt;&lt;/div&gt;" style="text;html=1;align=center;verticalAlign=middle;whiteSpace=wrap;rounded=0;" vertex="1" parent="1">
          <mxGeometry x="228" y="2278" width="100" height="30" as="geometry" />
        </mxCell>
        <mxCell id="WkjdpK5C_LHkue519j8W-188" value="&lt;span style=&quot;font-size: 14px;&quot;&gt;new int&lt;/span&gt;" style="text;html=1;align=center;verticalAlign=middle;whiteSpace=wrap;rounded=0;" vertex="1" parent="1">
          <mxGeometry x="248" y="2240" width="60" height="30" as="geometry" />
        </mxCell>
        <mxCell id="WkjdpK5C_LHkue519j8W-189" value="&lt;span style=&quot;font-size: 14px;&quot;&gt;0x1c9ae25cfe0&lt;/span&gt;" style="text;html=1;align=left;verticalAlign=middle;whiteSpace=wrap;rounded=0;" vertex="1" parent="1">
          <mxGeometry x="344" y="2278" width="88" height="30" as="geometry" />
        </mxCell>
        <mxCell id="WkjdpK5C_LHkue519j8W-190" style="edgeStyle=orthogonalEdgeStyle;rounded=0;orthogonalLoop=1;jettySize=auto;html=1;exitX=1;exitY=0;exitDx=0;exitDy=0;entryX=0;entryY=0.5;entryDx=0;entryDy=0;" edge="1" parent="1" source="WkjdpK5C_LHkue519j8W-191" target="WkjdpK5C_LHkue519j8W-186">
          <mxGeometry relative="1" as="geometry">
            <Array as="points">
              <mxPoint x="124" y="2338" />
              <mxPoint x="124" y="2293" />
            </Array>
          </mxGeometry>
        </mxCell>
        <mxCell id="WkjdpK5C_LHkue519j8W-191" value="" style="rounded=0;whiteSpace=wrap;html=1;fontSize=14;" vertex="1" parent="1">
          <mxGeometry x="40" y="2338" width="112" height="46" as="geometry" />
        </mxCell>
        <mxCell id="WkjdpK5C_LHkue519j8W-192" value="&lt;div style=&quot;text-align: left;&quot;&gt;&lt;span style=&quot;font-size: 14px;&quot;&gt;0x1c9ae25cfe0&lt;/span&gt;&lt;/div&gt;" style="text;html=1;align=center;verticalAlign=middle;whiteSpace=wrap;rounded=0;" vertex="1" parent="1">
          <mxGeometry x="46" y="2346" width="100" height="30" as="geometry" />
        </mxCell>
        <mxCell id="WkjdpK5C_LHkue519j8W-193" value="&lt;span style=&quot;font-size: 14px;&quot;&gt;*r&lt;/span&gt;" style="text;html=1;align=center;verticalAlign=middle;whiteSpace=wrap;rounded=0;" vertex="1" parent="1">
          <mxGeometry x="66" y="2308" width="60" height="30" as="geometry" />
        </mxCell>
        <mxCell id="WkjdpK5C_LHkue519j8W-194" value="&lt;span style=&quot;font-size: 14px;&quot;&gt;0x47a89ffc00&lt;/span&gt;" style="text;html=1;align=left;verticalAlign=middle;whiteSpace=wrap;rounded=0;" vertex="1" parent="1">
          <mxGeometry x="162" y="2346" width="88" height="30" as="geometry" />
        </mxCell>
        <mxCell id="WkjdpK5C_LHkue519j8W-195" style="edgeStyle=orthogonalEdgeStyle;rounded=0;orthogonalLoop=1;jettySize=auto;html=1;exitX=0.25;exitY=0;exitDx=0;exitDy=0;entryX=0.5;entryY=1;entryDx=0;entryDy=0;" edge="1" parent="1" source="WkjdpK5C_LHkue519j8W-196" target="WkjdpK5C_LHkue519j8W-177">
          <mxGeometry relative="1" as="geometry" />
        </mxCell>
        <mxCell id="WkjdpK5C_LHkue519j8W-196" value="" style="rounded=0;whiteSpace=wrap;html=1;fontSize=14;" vertex="1" parent="1">
          <mxGeometry x="252" y="2124" width="112" height="46" as="geometry" />
        </mxCell>
        <mxCell id="WkjdpK5C_LHkue519j8W-197" value="&lt;div style=&quot;text-align: left;&quot;&gt;&lt;span style=&quot;font-size: 14px;&quot;&gt;0x1c9ae2507e0&lt;/span&gt;&lt;/div&gt;" style="text;html=1;align=center;verticalAlign=middle;whiteSpace=wrap;rounded=0;" vertex="1" parent="1">
          <mxGeometry x="258" y="2132" width="100" height="30" as="geometry" />
        </mxCell>
        <mxCell id="WkjdpK5C_LHkue519j8W-198" value="&lt;span style=&quot;font-size: 14px;&quot;&gt;*s&lt;/span&gt;" style="text;html=1;align=center;verticalAlign=middle;whiteSpace=wrap;rounded=0;" vertex="1" parent="1">
          <mxGeometry x="294" y="2094" width="60" height="30" as="geometry" />
        </mxCell>
        <mxCell id="WkjdpK5C_LHkue519j8W-199" value="&lt;span style=&quot;font-size: 14px;&quot;&gt;0x47a89ffbf8&lt;/span&gt;" style="text;html=1;align=left;verticalAlign=middle;whiteSpace=wrap;rounded=0;" vertex="1" parent="1">
          <mxGeometry x="370" y="2132" width="88" height="30" as="geometry" />
        </mxCell>
      </root>
    </mxGraphModel>
  </diagram>
</mxfile>
